{
  "accessors": [
    {
      "bufferView": 2,
      "componentType": 5126,
      "count": 65532,
      "max": [
        4.360013008117676,
        3.3377768993377686,
        1.1707969903945923
      ],
      "min": [
        -4.021072864532471,
        -2.9571900367736816,
        0.125
      ],
      "type": "VEC3"
    },
    {
      "bufferView": 2,
      "byteOffset": 786384,
      "componentType": 5126,
      "count": 65532,
      "max": [
        0.9999996423721313,
        0.9999996423721313,
        1.0
      ],
      "min": [
        -0.9999995231628418,
        -0.9999996423721313,
        -0.9999997615814209
      ],
      "type": "VEC3"
    },
    {
      "bufferView": 1,
      "componentType": 5126,
      "count": 65532,
      "max": [
        1.0,
        0.9954959750175476
      ],
      "min": [
        0.003848999971523881,
        0.006812999956309795
      ],
      "type": "VEC2"
    },
    {
      "bufferView": 0,
      "componentType": 5125,
      "count": 344349,
      "type": "SCALAR"
    },
    {
      "bufferView": 2,
      "byteOffset": 1572768,
      "componentType": 5126,
      "count": 65532,
      "max": [
        4.34386682510376,
        3.302639961242676,
        1.1880979537963867
      ],
      "min": [
        -4.006082057952881,
        -2.943774938583374,
        0.1266230046749115
      ],
      "type": "VEC3"
    },
    {
      "bufferView": 2,
      "byteOffset": 2359152,
      "componentType": 5126,
      "count": 65532,
      "max": [
        1.0,
        0.9999980926513672,
        1.0
      ],
      "min": [
        -0.9999984502792358,
        -0.9999995231628418,
        -0.9999972581863403
      ],
      "type": "VEC3"
    },
    {
      "bufferView": 1,
      "byteOffset": 524256,
      "componentType": 5126,
      "count": 65532,
      "max": [
        1.0,
        0.9971950054168701
      ],
      "min": [
        0.0,
        0.0007639999967068434
      ],
      "type": "VEC2"
    },
    {
      "bufferView": 0,
      "byteOffset": 1377396,
      "componentType": 5125,
      "count": 343551,
      "type": "SCALAR"
    },
    {
      "bufferView": 2,
      "byteOffset": 3145536,
      "componentType": 5126,
      "count": 65532,
      "max": [
        4.237006187438965,
        3.32771897315979,
        1.2156109809875488
      ],
      "min": [
        -3.951435089111328,
        -2.7754979133605957,
        0.15698200464248657
      ],
      "type": "VEC3"
    },
    {
      "bufferView": 2,
      "byteOffset": 3931920,
      "componentType": 5126,
      "count": 65532,
      "max": [
        0.9999585151672363,
        0.9999926090240479,
        1.0
      ],
      "min": [
        -0.9999890327453613,
        -0.9999945163726807,
        -0.9999823570251465
      ],
      "type": "VEC3"
    },
    {
      "bufferView": 1,
      "byteOffset": 1048512,
      "componentType": 5126,
      "count": 65532,
      "max": [
        0.9995440244674683,
        0.9913309812545776
      ],
      "min": [
        8.70000003487803e-05,
        0.0
      ],
      "type": "VEC2"
    },
    {
      "bufferView": 0,
      "byteOffset": 2751600,
      "componentType": 5125,
      "count": 342354,
      "type": "SCALAR"
    },
    {
      "bufferView": 2,
      "byteOffset": 4718304,
      "componentType": 5126,
      "count": 65532,
      "max": [
        4.339116096496582,
        3.330815076828003,
        1.1976439952850342
      ],
      "min": [
        -3.994955062866211,
        -2.9389419555664063,
        0.13307000696659088
      ],
      "type": "VEC3"
    },
    {
      "bufferView": 2,
      "byteOffset": 5504688,
      "componentType": 5126,
      "count": 65532,
      "max": [
        0.9999984502792358,
        0.9999979734420776,
        0.9999998807907104
      ],
      "min": [
        -0.9999995231628418,
        -0.9999996423721313,
        -1.0
      ],
      "type": "VEC3"
    },
    {
      "bufferView": 1,
      "byteOffset": 1572768,
      "componentType": 5126,
      "count": 65532,
      "max": [
        0.9999439716339111,
        0.9973649978637695
      ],
      "min": [
        0.00031400000443682075,
        0.002294000005349517
      ],
      "type": "VEC2"
    },
    {
      "bufferView": 0,
      "byteOffset": 4121016,
      "componentType": 5125,
      "count": 280818,
      "type": "SCALAR"
    },
    {
      "bufferView": 2,
      "byteOffset": 6291072,
      "componentType": 5126,
      "count": 14703,
      "max": [
        4.276173114776611,
        3.3313510417938232,
        1.2120510339736938
      ],
      "min": [
        -3.973797082901001,
        -2.51985502243042,
        0.12896500527858734
      ],
      "type": "VEC3"
    },
    {
      "bufferView": 2,
      "byteOffset": 6467508,
      "componentType": 5126,
      "count": 14703,
      "max": [
        0.9999903440475464,
        0.9999986886978149,
        0.9999995231628418
      ],
      "min": [
        -0.9999537467956543,
        -0.9999784231185913,
        -0.9999991655349731
      ],
      "type": "VEC3"
    },
    {
      "bufferView": 1,
      "byteOffset": 2097024,
      "componentType": 5126,
      "count": 14703,
      "max": [
        0.997967004776001,
        0.9865800142288208
      ],
      "min": [
        0.0005559999844990671,
        0.0027840000111609697
      ],
      "type": "VEC2"
    },
    {
      "bufferView": 0,
      "byteOffset": 5244288,
      "componentType": 5125,
      "count": 35901,
      "type": "SCALAR"
    }
  ],
  "asset": {
    "extras": {
      "author": "Lassi Kaukonen (https://sketchfab.com/thesidekick)",
      "license": "CC-BY-4.0 (http://creativecommons.org/licenses/by/4.0/)",
      "source": "https://sketchfab.com/3d-models/knolling-toy-cars-8e4c5979b37c4eb8a35130515c2b1e58",
      "title": "Knolling / Toy Cars"
    },
    "generator": "Sketchfab-12.68.0",
    "version": "2.0"
  },
  "bufferViews": [
    {
      "buffer": 0,
      "byteLength": 5387892,
      "name": "floatBufferViews",
      "target": 34963
    },
    {
      "buffer": 0,
      "byteLength": 2214648,
      "byteOffset": 5387892,
      "byteStride": 8,
      "name": "floatBufferViews",
      "target": 34962
    },
    {
      "buffer": 0,
      "byteLength": 6643944,
      "byteOffset": 7602540,
      "byteStride": 12,
      "name": "floatBufferViews",
      "target": 34962
    }
  ],
  "buffers": [
    {
      "byteLength": 14246484,
      "uri": "scene.bin"
    }
  ],
  "images": [
    {
      "uri": "textures/Knolling_Toy_cars_retopo_baseColor.jpeg"
    }
  ],
  "materials": [
    {
      "doubleSided": true,
      "name": "Knolling_Toy_cars_retopo",
      "pbrMetallicRoughness": {
        "baseColorFactor": [
          0.4744318181818182,
          0.4744318181818182,
          0.4744318181818182,
          1.0
        ],
        "baseColorTexture": {
          "index": 0
        },
        "metallicFactor": 0.0,
        "roughnessFactor": 0.8770833333333333
      }
    }
  ],
  "meshes": [
    {
      "name": "Object_0",
      "primitives": [
        {
          "attributes": {
            "NORMAL": 1,
            "POSITION": 0,
            "TEXCOORD_0": 2
          },
          "indices": 3,
          "material": 0,
          "mode": 4
        }
      ]
    },
    {
      "name": "Object_1",
      "primitives": [
        {
          "attributes": {
            "NORMAL": 5,
            "POSITION": 4,
            "TEXCOORD_0": 6
          },
          "indices": 7,
          "material": 0,
          "mode": 4
        }
      ]
    },
    {
      "name": "Object_2",
      "primitives": [
        {
          "attributes": {
            "NORMAL": 9,
            "POSITION": 8,
            "TEXCOORD_0": 10
          },
          "indices": 11,
          "material": 0,
          "mode": 4
        }
      ]
    },
    {
      "name": "Object_3",
      "primitives": [
        {
          "attributes": {
            "NORMAL": 13,
            "POSITION": 12,
            "TEXCOORD_0": 14
          },
          "indices": 15,
          "material": 0,
          "mode": 4
        }
      ]
    },
    {
      "name": "Object_4",
      "primitives": [
        {
          "attributes": {
            "NORMAL": 17,
            "POSITION": 16,
            "TEXCOORD_0": 18
          },
          "indices": 19,
          "material": 0,
          "mode": 4
        }
      ]
    }
  ],
  "nodes": [
    {
      "children": [
        1
      ],
      "matrix": [
        1.0,
        0.0,
        0.0,
        0.0,
        0.0,
        2.220446049250313e-16,
        -1.0,
        0.0,
        0.0,
        1.0,
        2.220446049250313e-16,
        0.0,
        0.0,
        0.0,
        0.0,
        1.0
      ],
      "name": "Sketchfab_model"
    },
    {
      "children": [
        2,
        3,
        4,
        5,
        6
      ],
      "name": "Knolling_Toy_cars_retopo_0align.obj.cleaner.materialmerger.gles"
    },
    {
      "mesh": 0,
      "name": "Object_2"
    },
    {
      "mesh": 1,
      "name": "Object_3"
    },
    {
      "mesh": 2,
      "name": "Object_4"
    },
    {
      "mesh": 3,
      "name": "Object_5"
    },
    {
      "mesh": 4,
      "name": "Object_6"
    }
  ],
  "samplers": [
    {
      "magFilter": 9729,
      "minFilter": 9987,
      "wrapS": 10497,
      "wrapT": 10497
    }
  ],
  "scene": 0,
  "scenes": [
    {
      "name": "Sketchfab_Scene",
      "nodes": [
        0
      ]
    }
  ],
  "textures": [
    {
      "sampler": 0,
      "source": 0
    }
  ]
}
