{
  "accessors": [
    {
      "bufferView": 2,
      "componentType": 5126,
      "count": 65533,
      "max": [
        12.416901588439941,
        20.635028839111328,
        27.056514739990234
      ],
      "min": [
        -22.36899185180664,
        -19.31849479675293,
        0.24680709838867188
      ],
      "type": "VEC3"
    },
    {
      "bufferView": 2,
      "byteOffset": 786396,
      "componentType": 5126,
      "count": 65533,
      "max": [
        0.9999997615814209,
        0.9999998807907104,
        0.9999996423721313
      ],
      "min": [
        -0.9999998807907104,
        -0.9999999403953552,
        -0.9997786283493042
      ],
      "type": "VEC3"
    },
    {
      "bufferView": 1,
      "componentType": 5126,
      "count": 65533,
      "max": [
        0.9979550838470459,
        0.9989142417907715
      ],
      "min": [
        0.0010583868715912104,
        0.0010251787025481462
      ],
      "type": "VEC2"
    },
    {
      "bufferView": 0,
      "componentType": 5125,
      "count": 232974,
      "type": "SCALAR"
    },
    {
      "bufferView": 2,
      "byteOffset": 1572792,
      "componentType": 5126,
      "count": 34299,
      "max": [
        12.04242992401123,
        20.191049575805664,
        26.97232437133789
      ],
      "min": [
        -22.155309677124023,
        -18.787925720214844,
        0.4023284912109375
      ],
      "type": "VEC3"
    },
    {
      "bufferView": 2,
      "byteOffset": 1984380,
      "componentType": 5126,
      "count": 34299,
      "max": [
        0.9999997615814209,
        1.0,
        0.9999987483024597
      ],
      "min": [
        -0.9999964833259583,
        -0.9999993443489075,
        -0.9999996423721313
      ],
      "type": "VEC3"
    },
    {
      "bufferView": 1,
      "byteOffset": 524264,
      "componentType": 5126,
      "count": 34299,
      "max": [
        0.9978276491165161,
        0.9987679719924927
      ],
      "min": [
        0.00126542616635561,
        0.0009766434086486697
      ],
      "type": "VEC2"
    },
    {
      "bufferView": 0,
      "byteOffset": 931896,
      "componentType": 5125,
      "count": 60303,
      "type": "SCALAR"
    }
  ],
  "asset": {
    "extras": {
      "author": "3dhdscan (https://sketchfab.com/3dhdscan)",
      "license": "CC-BY-4.0 (http://creativecommons.org/licenses/by/4.0/)",
      "source": "https://sketchfab.com/3d-models/steam-engine-slide-distribution-system-rider-518cc68fbf0e4aad946286150c8f88bc",
      "title": "Steam engine - slide distribution system Rider"
    },
    "generator": "Sketchfab-12.67.0",
    "version": "2.0"
  },
  "bufferViews": [
    {
      "buffer": 0,
      "byteLength": 1173108,
      "name": "floatBufferViews",
      "target": 34963
    },
    {
      "buffer": 0,
      "byteLength": 798656,
      "byteOffset": 1173108,
      "byteStride": 8,
      "name": "floatBufferViews",
      "target": 34962
    },
    {
      "buffer": 0,
      "byteLength": 2395968,
      "byteOffset": 1971764,
      "byteStride": 12,
      "name": "floatBufferViews",
      "target": 34962
    }
  ],
  "buffers": [
    {
      "byteLength": 4367732,
      "uri": "scene.bin"
    }
  ],
  "extensionsUsed": [
    "KHR_materials_unlit"
  ],
  "images": [
    {
      "uri": "textures/engine1_baseColor.jpeg"
    }
  ],
  "materials": [
    {
      "extensions": {
        "KHR_materials_unlit": {}
      },
      "name": "engine1",
      "pbrMetallicRoughness": {
        "baseColorTexture": {
          "index": 0
        },
        "metallicFactor": 0.0
      }
    }
  ],
  "meshes": [
    {
      "name": "engine1_engine1_0",
      "primitives": [
        {
          "attributes": {
            "NORMAL": 1,
            "POSITION": 0,
            "TEXCOORD_0": 2
          },
          "indices": 3,
          "material": 0,
          "mode": 4
        }
      ]
    },
    {
      "name": "engine1_engine1_0",
      "primitives": [
        {
          "attributes": {
            "NORMAL": 5,
            "POSITION": 4,
            "TEXCOORD_0": 6
          },
          "indices": 7,
          "material": 0,
          "mode": 4
        }
      ]
    }
  ],
  "nodes": [
    {
      "children": [
        1
      ],
      "matrix": [
        1.0,
        0.0,
        0.0,
        0.0,
        0.0,
        2.220446049250313e-16,
        -1.0,
        0.0,
        0.0,
        1.0,
        2.220446049250313e-16,
        0.0,
        0.0,
        0.0,
        0.0,
        1.0
      ],
      "name": "Sketchfab_model"
    },
    {
      "children": [
        2
      ],
      "matrix": [
        1.0,
        0.0,
        0.0,
        0.0,
        0.0,
        0.0,
        1.0,
        0.0,
        0.0,
        -1.0,
        0.0,
        0.0,
        0.0,
        0.0,
        0.0,
        1.0
      ],
      "name": "engine1.FBX"
    },
    {
      "children": [
        3
      ],
      "name": "RootNode"
    },
    {
      "children": [
        4,
        5
      ],
      "matrix": [
        4.371138861980484e-06,
        -5.551115123125783e-15,
        99.99999999999991,
        0.0,
        99.99999999999991,
        1.1102230246251565e-14,
        -4.371138867531599e-06,
        0.0,
        -1.6653345369377348e-14,
        100.0,
        0.0,
        0.0,
        0.0,
        0.0,
        0.0,
        1.0
      ],
      "name": "engine1"
    },
    {
      "mesh": 0,
      "name": "engine1_engine1_0"
    },
    {
      "mesh": 1,
      "name": "engine1_engine1_0"
    }
  ],
  "samplers": [
    {
      "magFilter": 9729,
      "minFilter": 9987,
      "wrapS": 10497,
      "wrapT": 10497
    }
  ],
  "scene": 0,
  "scenes": [
    {
      "name": "Sketchfab_Scene",
      "nodes": [
        0
      ]
    }
  ],
  "textures": [
    {
      "sampler": 0,
      "source": 0
    }
  ]
}
