{
  "accessors": [
    {
      "bufferView": 2,
      "componentType": 5126,
      "count": 13985,
      "max": [
        0.669294536113739,
        0.16779224574565887,
        0.7072899341583252
      ],
      "min": [
        -0.6692945957183838,
        -0.16779224574565887,
        -0.7072900533676147
      ],
      "type": "VEC3"
    },
    {
      "bufferView": 2,
      "byteOffset": 167820,
      "componentType": 5126,
      "count": 13985,
      "max": [
        0.9999350309371948,
        0.9999998211860657,
        0.9994754195213318
      ],
      "min": [
        -0.9998277425765991,
        -0.9999988675117493,
        -0.9999563097953796
      ],
      "type": "VEC3"
    },
    {
      "bufferView": 1,
      "componentType": 5126,
      "count": 13985,
      "max": [
        0.9999740123748779,
        0.9967156052589417
      ],
      "min": [
        7.98293694970198e-05,
        1.8341688701184466e-05
      ],
      "type": "VEC2"
    },
    {
      "bufferView": 1,
      "byteOffset": 111880,
      "componentType": 5126,
      "count": 13985,
      "max": [
        0.9999740123748779,
        0.9967156052589417
      ],
      "min": [
        7.98293694970198e-05,
        1.8341688701184466e-05
      ],
      "type": "VEC2"
    },
    {
      "bufferView": 1,
      "byteOffset": 223760,
      "componentType": 5126,
      "count": 13985,
      "max": [
        0.9999740123748779,
        0.9967156052589417
      ],
      "min": [
        7.98293694970198e-05,
        1.8341688701184466e-05
      ],
      "type": "VEC2"
    },
    {
      "bufferView": 0,
      "componentType": 5125,
      "count": 74997,
      "type": "SCALAR"
    }
  ],
  "asset": {
    "extras": {
      "author": "Portland Museum (https://sketchfab.com/portlandmuseum)",
      "license": "CC-BY-NC-SA-4.0 (http://creativecommons.org/licenses/by-nc-sa/4.0/)",
      "source": "https://sketchfab.com/3d-models/wooden-pulley-wheel-eoa2022912-3ec54e6329cc4588a0f46f667e39ecc8",
      "title": "Wooden Pulley Wheel: EOA:2022.91.2"
    },
    "generator": "Sketchfab-13.90.0",
    "version": "2.0"
  },
  "bufferViews": [
    {
      "buffer": 0,
      "byteLength": 299988,
      "name": "floatBufferViews",
      "target": 34963
    },
    {
      "buffer": 0,
      "byteLength": 335640,
      "byteOffset": 299988,
      "byteStride": 8,
      "name": "floatBufferViews",
      "target": 34962
    },
    {
      "buffer": 0,
      "byteLength": 335640,
      "byteOffset": 635628,
      "byteStride": 12,
      "name": "floatBufferViews",
      "target": 34962
    }
  ],
  "buffers": [
    {
      "byteLength": 971268,
      "uri": "scene.bin"
    }
  ],
  "extensionsUsed": [
    "KHR_materials_unlit"
  ],
  "images": [
    {
      "uri": "textures/material_0_baseColor.jpeg"
    }
  ],
  "materials": [
    {
      "extensions": {
        "KHR_materials_unlit": {}
      },
      "name": "material_0",
      "pbrMetallicRoughness": {
        "baseColorTexture": {
          "index": 0
        },
        "metallicFactor": 0.0
      }
    }
  ],
  "meshes": [
    {
      "name": "Object_0",
      "primitives": [
        {
          "attributes": {
            "NORMAL": 1,
            "POSITION": 0,
            "TEXCOORD_0": 2,
            "TEXCOORD_1": 3,
            "TEXCOORD_2": 4
          },
          "indices": 5,
          "material": 0,
          "mode": 4
        }
      ]
    }
  ],
  "nodes": [
    {
      "children": [
        1
      ],
      "matrix": [
        1.0,
        0.0,
        0.0,
        0.0,
        0.0,
        2.220446049250313e-16,
        -1.0,
        0.0,
        0.0,
        1.0,
        2.220446049250313e-16,
        0.0,
        0.0,
        0.0,
        0.0,
        1.0
      ],
      "name": "Sketchfab_model"
    },
    {
      "children": [
        2
      ],
      "name": "root"
    },
    {
      "children": [
        3
      ],
      "matrix": [
        1.0,
        0.0,
        0.0,
        0.0,
        0.0,
        2.220446049250313e-16,
        1.0,
        0.0,
        0.0,
        -1.0,
        2.220446049250313e-16,
        0.0,
        0.0,
        0.0,
        0.0,
        1.0
      ],
      "name": "GLTF_SceneRootNode"
    },
    {
      "children": [
        4
      ],
      "name": "_0"
    },
    {
      "mesh": 0,
      "name": "Object_4"
    }
  ],
  "samplers": [
    {
      "magFilter": 9729,
      "minFilter": 9987,
      "wrapS": 10497,
      "wrapT": 10497
    }
  ],
  "scene": 0,
  "scenes": [
    {
      "name": "Sketchfab_Scene",
      "nodes": [
        0
      ]
    }
  ],
  "textures": [
    {
      "sampler": 0,
      "source": 0
    }
  ]
}
