{
  "accessors": [
    {
      "bufferView": 2,
      "componentType": 5126,
      "count": 65532,
      "max": [
        0.434955894947052,
        0.37701448798179626,
        1.3497185707092285
      ],
      "min": [
        -0.44922295212745667,
        -0.6250418424606323,
        -3.770721435546875
      ],
      "type": "VEC3"
    },
    {
      "bufferView": 2,
      "byteOffset": 786384,
      "componentType": 5126,
      "count": 65532,
      "max": [
        1.0,
        1.0,
        1.0
      ],
      "min": [
        -1.0,
        -1.0,
        -1.0
      ],
      "type": "VEC3"
    },
    {
      "bufferView": 1,
      "componentType": 5126,
      "count": 65532,
      "max": [
        0.8345758318901062,
        0.9580076932907104
      ],
      "min": [
        0.04721590876579285,
        0.43609800934791565
      ],
      "type": "VEC2"
    },
    {
      "bufferView": 0,
      "componentType": 5125,
      "count": 109941,
      "type": "SCALAR"
    },
    {
      "bufferView": 2,
      "byteOffset": 1572768,
      "componentType": 5126,
      "count": 65532,
      "max": [
        0.5882004499435425,
        0.8158769607543945,
        1.5973563194274902
      ],
      "min": [
        -0.5802828669548035,
        -0.6250418424606323,
        -3.9657444953918457
      ],
      "type": "VEC3"
    },
    {
      "bufferView": 2,
      "byteOffset": 2359152,
      "componentType": 5126,
      "count": 65532,
      "max": [
        1.0,
        1.0,
        1.0
      ],
      "min": [
        -1.0,
        -1.0,
        -1.0
      ],
      "type": "VEC3"
    },
    {
      "bufferView": 1,
      "byteOffset": 524256,
      "componentType": 5126,
      "count": 65532,
      "max": [
        1.0,
        1.0
      ],
      "min": [
        0.0,
        0.0
      ],
      "type": "VEC2"
    },
    {
      "bufferView": 0,
      "byteOffset": 439764,
      "componentType": 5125,
      "count": 112839,
      "type": "SCALAR"
    },
    {
      "bufferView": 2,
      "byteOffset": 3145536,
      "componentType": 5126,
      "count": 65532,
      "max": [
        0.4344444274902344,
        0.39847761392593384,
        -2.216512680053711
      ],
      "min": [
        -0.4474128484725952,
        -0.12938201427459717,
        -3.3776416778564453
      ],
      "type": "VEC3"
    },
    {
      "bufferView": 2,
      "byteOffset": 3931920,
      "componentType": 5126,
      "count": 65532,
      "max": [
        0.9999566078186035,
        0.999924898147583,
        0.9999920129776001
      ],
      "min": [
        -0.9999566078186035,
        -0.9999172687530518,
        -0.9999983310699463
      ],
      "type": "VEC3"
    },
    {
      "bufferView": 1,
      "byteOffset": 1048512,
      "componentType": 5126,
      "count": 65532,
      "max": [
        0.5689019560813904,
        0.455784410238266
      ],
      "min": [
        0.17517659068107605,
        0.4459410607814789
      ],
      "type": "VEC2"
    },
    {
      "bufferView": 0,
      "byteOffset": 891120,
      "componentType": 5125,
      "count": 102549,
      "type": "SCALAR"
    },
    {
      "bufferView": 2,
      "byteOffset": 4718304,
      "componentType": 5126,
      "count": 34095,
      "max": [
        0.5342040657997131,
        0.589539647102356,
        1.5951495170593262
      ],
      "min": [
        -0.5342040657997131,
        -0.5956560969352722,
        -3.900669574737549
      ],
      "type": "VEC3"
    },
    {
      "bufferView": 2,
      "byteOffset": 5127444,
      "componentType": 5126,
      "count": 34095,
      "max": [
        1.0,
        1.0,
        1.0
      ],
      "min": [
        -1.0,
        -1.0,
        -1.0
      ],
      "type": "VEC3"
    },
    {
      "bufferView": 1,
      "byteOffset": 1572768,
      "componentType": 5126,
      "count": 34095,
      "max": [
        0.8347156643867493,
        0.9726561903953552
      ],
      "min": [
        0.04229435324668884,
        0.4257811903953552
      ],
      "type": "VEC2"
    },
    {
      "bufferView": 0,
      "byteOffset": 1301316,
      "componentType": 5125,
      "count": 66135,
      "type": "SCALAR"
    },
    {
      "bufferView": 2,
      "byteOffset": 5536584,
      "componentType": 5126,
      "count": 6052,
      "max": [
        0.3307681083679199,
        0.43738052248954773,
        1.902655005455017
      ],
      "min": [
        -0.31469863653182983,
        -0.5985837578773499,
        -0.6660457849502563
      ],
      "type": "VEC3"
    },
    {
      "bufferView": 2,
      "byteOffset": 5609208,
      "componentType": 5126,
      "count": 6052,
      "max": [
        0.9999223947525024,
        1.0,
        1.0
      ],
      "min": [
        -0.9999223947525024,
        -1.0,
        -0.9999856948852539
      ],
      "type": "VEC3"
    },
    {
      "bufferView": 1,
      "byteOffset": 1845528,
      "componentType": 5126,
      "count": 6052,
      "max": [
        0.5744094252586365,
        0.958858072757721
      ],
      "min": [
        0.05341668426990509,
        0.5346550941467285
      ],
      "type": "VEC2"
    },
    {
      "bufferView": 0,
      "byteOffset": 1565856,
      "componentType": 5125,
      "count": 9240,
      "type": "SCALAR"
    },
    {
      "bufferView": 2,
      "byteOffset": 5681832,
      "componentType": 5126,
      "count": 240,
      "max": [
        0.04970810189843178,
        0.4093470275402069,
        1.4062018394470215
      ],
      "min": [
        -0.04970771074295044,
        0.309931218624115,
        1.3564939498901367
      ],
      "type": "VEC3"
    },
    {
      "bufferView": 2,
      "byteOffset": 5684712,
      "componentType": 5126,
      "count": 240,
      "max": [
        0.9626383781433105,
        0.9800523519515991,
        0.9626383781433105
      ],
      "min": [
        -0.9626383781433105,
        -0.9800523519515991,
        0.03875896334648132
      ],
      "type": "VEC3"
    },
    {
      "bufferView": 1,
      "byteOffset": 1893944,
      "componentType": 5126,
      "count": 240,
      "max": [
        0.06690219044685364,
        0.9134114980697632
      ],
      "min": [
        0.06690219044685364,
        0.9134114980697632
      ],
      "type": "VEC2"
    },
    {
      "bufferView": 0,
      "byteOffset": 1602816,
      "componentType": 5125,
      "count": 336,
      "type": "SCALAR"
    }
  ],
  "asset": {
    "extras": {
      "author": "Azure Rod (https://sketchfab.com/AzureRod)",
      "license": "CC-BY-4.0 (http://creativecommons.org/licenses/by/4.0/)",
      "source": "https://sketchfab.com/3d-models/lowpoly-steam-locomotive-1bd631c4c82d4635828b9a4803371069",
      "title": "LowPoly Steam Locomotive"
    },
    "generator": "Sketchfab-12.67.0",
    "version": "2.0"
  },
  "bufferViews": [
    {
      "buffer": 0,
      "byteLength": 1604160,
      "name": "floatBufferViews",
      "target": 34963
    },
    {
      "buffer": 0,
      "byteLength": 1895864,
      "byteOffset": 1604160,
      "byteStride": 8,
      "name": "floatBufferViews",
      "target": 34962
    },
    {
      "buffer": 0,
      "byteLength": 5687592,
      "byteOffset": 3500024,
      "byteStride": 12,
      "name": "floatBufferViews",
      "target": 34962
    }
  ],
  "buffers": [
    {
      "byteLength": 9187616,
      "uri": "scene.bin"
    }
  ],
  "images": [
    {
      "uri": "textures/Materialbase.001_baseColor.png"
    }
  ],
  "materials": [
    {
      "doubleSided": true,
      "name": "Materialbase.001",
      "pbrMetallicRoughness": {
        "baseColorTexture": {
          "index": 0
        },
        "metallicFactor": 0.0,
        "roughnessFactor": 0.5
      }
    },
    {
      "doubleSided": true,
      "name": "Gold.001",
      "pbrMetallicRoughness": {
        "baseColorTexture": {
          "index": 0
        },
        "roughnessFactor": 0.5
      }
    },
    {
      "doubleSided": true,
      "emissiveFactor": [
        1.0,
        1.0,
        0.5665151012500836
      ],
      "name": "Emission.001",
      "pbrMetallicRoughness": {
        "baseColorTexture": {
          "index": 0
        },
        "metallicFactor": 0.0
      }
    }
  ],
  "meshes": [
    {
      "name": "Object_0",
      "primitives": [
        {
          "attributes": {
            "NORMAL": 1,
            "POSITION": 0,
            "TEXCOORD_0": 2
          },
          "indices": 3,
          "material": 0,
          "mode": 4
        }
      ]
    },
    {
      "name": "Object_1",
      "primitives": [
        {
          "attributes": {
            "NORMAL": 5,
            "POSITION": 4,
            "TEXCOORD_0": 6
          },
          "indices": 7,
          "material": 0,
          "mode": 4
        }
      ]
    },
    {
      "name": "Object_2",
      "primitives": [
        {
          "attributes": {
            "NORMAL": 9,
            "POSITION": 8,
            "TEXCOORD_0": 10
          },
          "indices": 11,
          "material": 0,
          "mode": 4
        }
      ]
    },
    {
      "name": "Object_3",
      "primitives": [
        {
          "attributes": {
            "NORMAL": 13,
            "POSITION": 12,
            "TEXCOORD_0": 14
          },
          "indices": 15,
          "material": 0,
          "mode": 4
        }
      ]
    },
    {
      "name": "Object_4",
      "primitives": [
        {
          "attributes": {
            "NORMAL": 17,
            "POSITION": 16,
            "TEXCOORD_0": 18
          },
          "indices": 19,
          "material": 1,
          "mode": 4
        }
      ]
    },
    {
      "name": "Object_5",
      "primitives": [
        {
          "attributes": {
            "NORMAL": 21,
            "POSITION": 20,
            "TEXCOORD_0": 22
          },
          "indices": 23,
          "material": 2,
          "mode": 4
        }
      ]
    }
  ],
  "nodes": [
    {
      "children": [
        1
      ],
      "matrix": [
        -0.00528385303914547,
        -2.220415079608179e-16,
        0.9999860525131226,
        0.0,
        0.9999860525131226,
        -1.1732510605589818e-18,
        0.00528385303914547,
        0.0,
        0.0,
        1.0,
        2.220446049250313e-16,
        0.0,
        0.35825347900390625,
        1.4384246012334544e-16,
        0.35219115018844604,
        1.0
      ],
      "name": "Sketchfab_model"
    },
    {
      "children": [
        2
      ],
      "name": "root"
    },
    {
      "children": [
        3
      ],
      "matrix": [
        1.0,
        0.0,
        0.0,
        0.0,
        0.0,
        2.220446049250313e-16,
        1.0,
        0.0,
        0.0,
        -1.0,
        2.220446049250313e-16,
        0.0,
        0.0,
        0.0,
        0.0,
        1.0
      ],
      "name": "GLTF_SceneRootNode"
    },
    {
      "children": [
        4
      ],
      "matrix": [
        0.5608749389648438,
        0.0,
        0.0,
        0.0,
        0.0,
        0.6396563053131104,
        0.0,
        0.0,
        0.0,
        0.0,
        3.004617929458618,
        0.0,
        0.0,
        0.6883298754692078,
        0.0,
        1.0
      ],
      "name": "Controlar_1"
    },
    {
      "children": [
        5,
        6,
        7,
        8,
        9,
        10
      ],
      "matrix": [
        1.782928705215454,
        0.0,
        0.0,
        0.0,
        0.0,
        1.5633395910263062,
        0.0,
        0.0,
        0.0,
        0.0,
        0.3328210115432739,
        0.0,
        0.0,
        -0.10053247213363647,
        0.4612317979335785,
        1.0
      ],
      "name": "Cube.012_0"
    },
    {
      "mesh": 0,
      "name": "Object_5"
    },
    {
      "mesh": 1,
      "name": "Object_6"
    },
    {
      "mesh": 2,
      "name": "Object_7"
    },
    {
      "mesh": 3,
      "name": "Object_8"
    },
    {
      "mesh": 4,
      "name": "Object_9"
    },
    {
      "mesh": 5,
      "name": "Object_10"
    }
  ],
  "samplers": [
    {
      "magFilter": 9729,
      "minFilter": 9987,
      "wrapS": 10497,
      "wrapT": 10497
    }
  ],
  "scene": 0,
  "scenes": [
    {
      "name": "Sketchfab_Scene",
      "nodes": [
        0
      ]
    }
  ],
  "textures": [
    {
      "sampler": 0,
      "source": 0
    }
  ]
}
