{
  "accessors": [
    {
      "bufferView": 2,
      "componentType": 5126,
      "count": 9272,
      "max": [
        0.3405199944972992,
        0.5151129961013794,
        0.5498210191726685
      ],
      "min": [
        -0.22314199805259705,
        -0.47233399748802185,
        0.07507800310850143
      ],
      "type": "VEC3"
    },
    {
      "bufferView": 2,
      "byteOffset": 111264,
      "componentType": 5126,
      "count": 9272,
      "max": [
        1.0,
        1.0,
        1.0
      ],
      "min": [
        -1.0,
        -1.0,
        -1.0
      ],
      "type": "VEC3"
    },
    {
      "bufferView": 1,
      "componentType": 5126,
      "count": 9272,
      "max": [
        0.9900079965591431,
        0.9925659894943237
      ],
      "min": [
        0.005826999898999929,
        0.0074339997954666615
      ],
      "type": "VEC2"
    },
    {
      "bufferView": 0,
      "componentType": 5125,
      "count": 31098,
      "type": "SCALAR"
    }
  ],
  "asset": {
    "extras": {
      "author": "volodymyr.strutsenko (https://sketchfab.com/volodymyr.strutsenko)",
      "license": "CC-BY-4.0 (http://creativecommons.org/licenses/by/4.0/)",
      "source": "https://sketchfab.com/3d-models/hemi-lovpoly-9be9c0a3e07c44c7bb10d70ccfe33988",
      "title": "HEMI LovPoly"
    },
    "generator": "Sketchfab-13.22.0",
    "version": "2.0"
  },
  "bufferViews": [
    {
      "buffer": 0,
      "byteLength": 124392,
      "name": "floatBufferViews",
      "target": 34963
    },
    {
      "buffer": 0,
      "byteLength": 74176,
      "byteOffset": 124392,
      "byteStride": 8,
      "name": "floatBufferViews",
      "target": 34962
    },
    {
      "buffer": 0,
      "byteLength": 222528,
      "byteOffset": 198568,
      "byteStride": 12,
      "name": "floatBufferViews",
      "target": 34962
    }
  ],
  "buffers": [
    {
      "byteLength": 421096,
      "uri": "scene.bin"
    }
  ],
  "images": [
    {
      "uri": "textures/engine_baseColor.png"
    },
    {
      "uri": "textures/engine_metallicRoughness.png"
    }
  ],
  "materials": [
    {
      "doubleSided": true,
      "name": "engine",
      "pbrMetallicRoughness": {
        "baseColorTexture": {
          "index": 0
        },
        "metallicRoughnessTexture": {
          "index": 1
        }
      }
    }
  ],
  "meshes": [
    {
      "name": "Object_0",
      "primitives": [
        {
          "attributes": {
            "NORMAL": 1,
            "POSITION": 0,
            "TEXCOORD_0": 2
          },
          "indices": 3,
          "material": 0,
          "mode": 4
        }
      ]
    }
  ],
  "nodes": [
    {
      "children": [
        1
      ],
      "matrix": [
        1.5418524742126465,
        0.0,
        0.0,
        0.0,
        0.0,
        3.423600234892291e-16,
        -1.5418524742126465,
        0.0,
        0.0,
        1.5418524742126465,
        3.423600234892291e-16,
        0.0,
        0.0,
        0.0,
        0.0,
        1.0
      ],
      "name": "Sketchfab_model"
    },
    {
      "children": [
        2
      ],
      "name": "HEMI.obj.cleaner.materialmerger.gles"
    },
    {
      "mesh": 0,
      "name": "Object_2"
    }
  ],
  "samplers": [
    {
      "magFilter": 9729,
      "minFilter": 9987,
      "wrapS": 10497,
      "wrapT": 10497
    }
  ],
  "scene": 0,
  "scenes": [
    {
      "name": "Sketchfab_Scene",
      "nodes": [
        0
      ]
    }
  ],
  "textures": [
    {
      "sampler": 0,
      "source": 0
    },
    {
      "sampler": 0,
      "source": 1
    }
  ]
}
