{
  "accessors": [
    {
      "bufferView": 2,
      "componentType": 5126,
      "count": 632,
      "max": [
        0.07665368914604187,
        -0.22453995048999786,
        0.10713861882686615
      ],
      "min": [
        -0.07665366679430008,
        -0.374659925699234,
        -0.10712522268295288
      ],
      "type": "VEC3"
    },
    {
      "bufferView": 2,
      "byteOffset": 7584,
      "componentType": 5126,
      "count": 632,
      "max": [
        0.9999901652336121,
        1.0,
        0.9998018145561218
      ],
      "min": [
        -0.9999986886978149,
        -1.0,
        -1.0
      ],
      "type": "VEC3"
    },
    {
      "bufferView": 3,
      "componentType": 5126,
      "count": 632,
      "max": [
        0.48627451062202454,
        0.3764705955982208,
        0.3176470696926117,
        1.0
      ],
      "min": [
        0.1764705926179886,
        0.10196078568696976,
        0.0784313753247261,
        1.0
      ],
      "type": "VEC4"
    },
    {
      "bufferView": 1,
      "componentType": 5126,
      "count": 632,
      "max": [
        0.8987100124359131,
        0.9688799977302551
      ],
      "min": [
        0.14977000653743744,
        0.03756000101566315
      ],
      "type": "VEC2"
    },
    {
      "bufferView": 0,
      "componentType": 5125,
      "count": 2640,
      "type": "SCALAR"
    },
    {
      "bufferView": 2,
      "byteOffset": 15168,
      "componentType": 5126,
      "count": 220,
      "max": [
        0.07655729353427887,
        -0.1483590006828308,
        0.3175296187400818
      ],
      "min": [
        -0.07655719667673111,
        -0.2320694625377655,
        0.0012276499764993787
      ],
      "type": "VEC3"
    },
    {
      "bufferView": 2,
      "byteOffset": 17808,
      "componentType": 5126,
      "count": 220,
      "max": [
        0.99940025806427,
        0.9963781833648682,
        0.9916702508926392
      ],
      "min": [
        -0.9996260404586792,
        -0.9963628053665161,
        -0.8957885503768921
      ],
      "type": "VEC3"
    },
    {
      "bufferView": 3,
      "byteOffset": 10112,
      "componentType": 5126,
      "count": 220,
      "max": [
        0.5176470875740051,
        0.40784314274787903,
        0.3843137323856354,
        1.0
      ],
      "min": [
        0.24313725531101227,
        0.19607843458652496,
        0.1568627506494522,
        1.0
      ],
      "type": "VEC4"
    },
    {
      "bufferView": 1,
      "byteOffset": 5056,
      "componentType": 5126,
      "count": 220,
      "max": [
        0.9664300084114075,
        0.9623000025749207
      ],
      "min": [
        0.034949999302625656,
        0.04651999846100807
      ],
      "type": "VEC2"
    },
    {
      "bufferView": 0,
      "byteOffset": 10560,
      "componentType": 5125,
      "count": 528,
      "type": "SCALAR"
    },
    {
      "bufferView": 2,
      "byteOffset": 20448,
      "componentType": 5126,
      "count": 924,
      "max": [
        0.10636734962463379,
        -0.1347448080778122,
        0.07692716270685196
      ],
      "min": [
        -0.10496077686548233,
        -0.2896939516067505,
        -0.07692322134971619
      ],
      "type": "VEC3"
    },
    {
      "bufferView": 2,
      "byteOffset": 31536,
      "componentType": 5126,
      "count": 924,
      "max": [
        0.9976990818977356,
        0.9999216794967651,
        0.9993581175804138
      ],
      "min": [
        -0.9997167587280273,
        -0.9991207122802734,
        -0.9991893768310547
      ],
      "type": "VEC3"
    },
    {
      "bufferView": 3,
      "byteOffset": 13632,
      "componentType": 5126,
      "count": 924,
      "max": [
        0.6039215922355652,
        0.5215686559677124,
        0.4274509847164154,
        1.0
      ],
      "min": [
        0.239215686917305,
        0.18039216101169586,
        0.11372549086809158,
        1.0
      ],
      "type": "VEC4"
    },
    {
      "bufferView": 1,
      "byteOffset": 6816,
      "componentType": 5126,
      "count": 924,
      "max": [
        0.9123700261116028,
        0.9038299918174744
      ],
      "min": [
        0.11039000004529953,
        0.06851000338792801
      ],
      "type": "VEC2"
    },
    {
      "bufferView": 0,
      "byteOffset": 12672,
      "componentType": 5125,
      "count": 2112,
      "type": "SCALAR"
    }
  ],
  "asset": {
    "extras": {
      "author": "skunkworks (https://sketchfab.com/skunkworks)",
      "license": "CC-BY-NC-4.0 (http://creativecommons.org/licenses/by-nc/4.0/)",
      "source": "https://sketchfab.com/3d-models/lesley-caruchka-vol2-8a80dfcc4003402c8cbf1377d2e8be66",
      "title": "Lesley Caruchka vol.2"
    },
    "generator": "Sketchfab-12.66.0",
    "version": "2.0"
  },
  "bufferViews": [
    {
      "buffer": 0,
      "byteLength": 21120,
      "name": "floatBufferViews",
      "target": 34963
    },
    {
      "buffer": 0,
      "byteLength": 14208,
      "byteOffset": 21120,
      "byteStride": 8,
      "name": "floatBufferViews",
      "target": 34962
    },
    {
      "buffer": 0,
      "byteLength": 42624,
      "byteOffset": 35328,
      "byteStride": 12,
      "name": "floatBufferViews",
      "target": 34962
    },
    {
      "buffer": 0,
      "byteLength": 28416,
      "byteOffset": 77952,
      "byteStride": 16,
      "name": "floatBufferViews",
      "target": 34962
    }
  ],
  "buffers": [
    {
      "byteLength": 106368,
      "uri": "scene.bin"
    }
  ],
  "images": [
    {
      "uri": "textures/defaultMat_baseColor.jpeg"
    },
    {
      "uri": "textures/defaultMat_0_baseColor.jpeg"
    },
    {
      "uri": "textures/defaultMat_1_baseColor.jpeg"
    }
  ],
  "materials": [
    {
      "doubleSided": true,
      "name": "defaultMat",
      "pbrMetallicRoughness": {
        "baseColorTexture": {
          "index": 0
        },
        "metallicFactor": 0.0,
        "roughnessFactor": 0.6
      }
    },
    {
      "doubleSided": true,
      "name": "defaultMat_0",
      "pbrMetallicRoughness": {
        "baseColorTexture": {
          "index": 1
        },
        "metallicFactor": 0.0,
        "roughnessFactor": 0.6
      }
    },
    {
      "doubleSided": true,
      "name": "defaultMat_1",
      "pbrMetallicRoughness": {
        "baseColorTexture": {
          "index": 2
        },
        "metallicFactor": 0.0,
        "roughnessFactor": 0.6
      }
    }
  ],
  "meshes": [
    {
      "name": "Object_0",
      "primitives": [
        {
          "attributes": {
            "COLOR_0": 2,
            "NORMAL": 1,
            "POSITION": 0,
            "TEXCOORD_0": 3
          },
          "indices": 4,
          "material": 2,
          "mode": 4
        }
      ]
    },
    {
      "name": "Object_1",
      "primitives": [
        {
          "attributes": {
            "COLOR_0": 7,
            "NORMAL": 6,
            "POSITION": 5,
            "TEXCOORD_0": 8
          },
          "indices": 9,
          "material": 1,
          "mode": 4
        }
      ]
    },
    {
      "name": "Object_2",
      "primitives": [
        {
          "attributes": {
            "COLOR_0": 12,
            "NORMAL": 11,
            "POSITION": 10,
            "TEXCOORD_0": 13
          },
          "indices": 14,
          "material": 0,
          "mode": 4
        }
      ]
    }
  ],
  "nodes": [
    {
      "children": [
        1
      ],
      "matrix": [
        -1.0,
        3.608224830031759e-16,
        2.7755575615628994e-17,
        0.0,
        -3.608224830031759e-16,
        -1.0,
        -2.220446049250313e-16,
        0.0,
        2.7755575615628914e-17,
        -2.220446049250313e-16,
        1.0,
        0.0,
        1.7881393432617188e-07,
        -0.13636897504329684,
        0.1363689750432968,
        1.0
      ],
      "name": "Sketchfab_model"
    },
    {
      "children": [
        2,
        4,
        6
      ],
      "name": "zbrush_concat.osgb.cleaner.gles"
    },
    {
      "children": [
        3
      ],
      "name": "/sketchfab-data/processing/4d8e06a9d72143978f44b366fb9d01e8/preprocess/SubTool-2-11414556.OBJ"
    },
    {
      "mesh": 0,
      "name": "Object_3"
    },
    {
      "children": [
        5
      ],
      "name": "/sketchfab-data/processing/4d8e06a9d72143978f44b366fb9d01e8/preprocess/SubTool-1-11414556.OBJ"
    },
    {
      "mesh": 1,
      "name": "Object_5"
    },
    {
      "children": [
        7
      ],
      "name": "/sketchfab-data/processing/4d8e06a9d72143978f44b366fb9d01e8/preprocess/SubTool-0-4286165.OBJ"
    },
    {
      "mesh": 2,
      "name": "Object_7"
    }
  ],
  "samplers": [
    {
      "magFilter": 9729,
      "minFilter": 9987,
      "wrapS": 10497,
      "wrapT": 10497
    }
  ],
  "scene": 0,
  "scenes": [
    {
      "name": "Sketchfab_Scene",
      "nodes": [
        0
      ]
    }
  ],
  "textures": [
    {
      "sampler": 0,
      "source": 0
    },
    {
      "sampler": 0,
      "source": 1
    },
    {
      "sampler": 0,
      "source": 2
    }
  ]
}
